<svg width="34" height="35" viewBox="0 0 34 35" fill="none" xmlns="http://www.w3.org/2000/svg">
<path opacity="0.987" fill-rule="evenodd" clip-rule="evenodd" d="M14.8981 0.151875C16.7106 -0.050625 17.7831 -0.050625 19.7306 0.151875C23.1779 0.662113 26.3736 2.25559 28.8556 4.70188C27.1784 6.28721 25.5233 7.8957 23.8906 9.52687C20.7639 6.87687 17.2739 6.26521 13.4206 7.69187C10.5939 8.99187 8.62561 11.0985 7.51561 14.0119C5.70171 12.6615 3.91144 11.2796 2.14561 9.86687C2.02289 9.80228 1.88273 9.77863 1.74561 9.79937C4.55061 4.39104 8.93394 1.17437 14.8956 0.149375" fill="#F44336"/>
<path opacity="0.997" fill-rule="evenodd" clip-rule="evenodd" d="M1.74063 9.79935C1.8823 9.77769 2.01646 9.80019 2.14313 9.86685C3.90896 11.2796 5.69923 12.6614 7.51313 14.0119C7.22769 15.147 7.04776 16.3061 6.97563 17.4744C7.0373 18.6044 7.21646 19.7135 7.51313 20.8019L1.87563 25.2894C-0.57937 20.1594 -0.62437 14.996 1.74063 9.79935Z" fill="#FFC107"/>
<path opacity="0.999" fill-rule="evenodd" clip-rule="evenodd" d="M28.5881 30.7244C26.8328 29.1763 24.9951 27.7242 23.0831 26.3744C24.9998 25.021 26.1631 23.1644 26.5731 20.8044H17.1806V14.2819C22.5973 14.2369 28.0114 14.2827 33.4231 14.4194C34.4498 19.9944 33.2639 25.021 29.8656 29.4994C29.4615 29.9289 29.0335 30.3378 28.5881 30.7244Z" fill="#448AFF"/>
<path opacity="0.993" fill-rule="evenodd" clip-rule="evenodd" d="M7.51311 20.8044C9.56311 25.8994 13.3214 28.2777 18.7881 27.9394C20.3227 27.7617 21.794 27.2256 23.0831 26.3744C24.9964 27.7277 26.8314 29.1777 28.5881 30.7244C25.8047 33.2255 22.2559 34.7096 18.5206 34.9344C17.672 35.0022 16.8193 35.0022 15.9706 34.9344C9.60728 34.1844 4.90894 30.9694 1.87561 25.2894L7.51311 20.8044Z" fill="#43A047"/>
</svg>
