<svg width="28" height="31" viewBox="0 0 28 31" fill="none" xmlns="http://www.w3.org/2000/svg">
<path d="M2.828 31C2.02183 31 1.34925 30.7381 0.81025 30.2144C0.27125 29.6907 0.00116667 29.0372 0 28.2539V6.53975C0 5.75756 0.270083 5.10461 0.81025 4.58089C1.35042 4.05716 2.023 3.79474 2.828 3.7936H5.92375V0.916527C5.92375 0.652398 6.013 0.433613 6.1915 0.260173C6.37 0.0867319 6.59458 1.17269e-05 6.86525 1.17269e-05C7.13592 1.17269e-05 7.36108 0.0867319 7.54075 0.260173C7.72042 0.433613 7.80967 0.652398 7.8085 0.916527V3.7936H20.328V0.851912C20.328 0.609321 20.4114 0.406407 20.5782 0.243169C20.7451 0.0799303 20.9533 -0.00112187 21.203 1.17269e-05C21.4527 0.00114533 21.6603 0.0821975 21.826 0.243169C21.9917 0.40414 22.0757 0.606488 22.078 0.850212V3.7936H25.1737C25.9788 3.7936 26.6513 4.05603 27.1915 4.58089C27.7317 5.10574 28.0012 5.75926 28 6.54145V28.2539C28 29.036 27.7305 29.6896 27.1915 30.2144C26.6525 30.7393 25.9793 31.0011 25.172 31H2.828ZM2.828 29.2996H25.1737C25.4421 29.2996 25.6888 29.1908 25.914 28.9731C26.1392 28.7555 26.2512 28.5151 26.25 28.2521V13.343H1.75V28.2539C1.75 28.5146 1.862 28.7543 2.086 28.9731C2.31 29.1919 2.55675 29.3007 2.82625 29.2996M1.75 11.6409H26.25V6.53975C26.25 6.27902 26.138 6.03926 25.914 5.82048C25.69 5.60169 25.4427 5.49287 25.172 5.494H2.828C2.5585 5.494 2.31117 5.60283 2.086 5.82048C1.86083 6.03813 1.74883 6.27845 1.75 6.54145V11.6409ZM14 19.3591C13.6383 19.3591 13.3233 19.2287 13.055 18.968C12.7867 18.7072 12.6525 18.4012 12.6525 18.0498C12.6525 17.6983 12.7867 17.3928 13.055 17.1332C13.3233 16.8736 13.6383 16.7433 14 16.7421C14.3617 16.741 14.6767 16.8714 14.945 17.1332C15.2133 17.3951 15.3475 17.7012 15.3475 18.0515C15.3475 18.4017 15.2133 18.7072 14.945 18.968C14.6767 19.2287 14.3617 19.3591 14 19.3591ZM6.055 18.968C5.78667 18.7072 5.6525 18.4012 5.6525 18.0498C5.6525 17.6995 5.78667 17.394 6.055 17.1332C6.32333 16.8725 6.63833 16.7421 7 16.7421C7.36167 16.7421 7.67667 16.8725 7.945 17.1332C8.21333 17.394 8.3475 17.7 8.3475 18.0515C8.3475 18.4029 8.21333 18.7084 7.945 18.968C7.67667 19.2276 7.36167 19.3579 7 19.3591C6.63833 19.3602 6.32333 19.2298 6.055 18.968ZM21 19.3591C20.6383 19.3591 20.3233 19.2287 20.055 18.968C19.7867 18.7072 19.6525 18.4012 19.6525 18.0498C19.6525 17.6983 19.7867 17.3928 20.055 17.1332C20.3233 16.8736 20.6383 16.7433 21 16.7421C21.3617 16.741 21.6767 16.8714 21.945 17.1332C22.2133 17.3951 22.3475 17.7012 22.3475 18.0515C22.3475 18.4017 22.2133 18.7072 21.945 18.968C21.6767 19.2287 21.3617 19.3591 21 19.3591ZM14 25.8988C13.6383 25.8988 13.3233 25.7684 13.055 25.5077C12.7867 25.247 12.6525 24.9409 12.6525 24.5895C12.6525 24.2381 12.7867 23.9326 13.055 23.673C13.3233 23.4134 13.6383 23.283 14 23.2819C14.3617 23.2808 14.6767 23.4111 14.945 23.673C15.2133 23.9348 15.3475 24.2409 15.3475 24.5912C15.3475 24.9415 15.2133 25.2475 14.945 25.5094C14.6767 25.7713 14.3617 25.9011 14 25.8988ZM6.055 25.5077C5.78667 25.247 5.6525 24.9409 5.6525 24.5895C5.6525 24.2392 5.78667 23.9337 6.055 23.673C6.32333 23.4122 6.63833 23.2819 7 23.2819C7.36167 23.2819 7.67667 23.4122 7.945 23.673C8.21333 23.9337 8.3475 24.2398 8.3475 24.5912C8.3475 24.9426 8.21333 25.2487 7.945 25.5094C7.67667 25.769 7.36167 25.8988 7 25.8988C6.63833 25.8988 6.32333 25.7684 6.055 25.5077ZM21 25.8988C20.6383 25.8988 20.3233 25.7684 20.055 25.5077C19.7867 25.247 19.6525 24.9409 19.6525 24.5895C19.6525 24.2381 19.7867 23.9326 20.055 23.673C20.3233 23.4134 20.6383 23.283 21 23.2819C21.3617 23.2808 21.6767 23.4111 21.945 23.673C22.2133 23.9348 22.3475 24.2409 22.3475 24.5912C22.3475 24.9415 22.2133 25.2475 21.945 25.5094C21.6767 25.7713 21.3617 25.9011 21 25.8988Z" fill="#0162D1"/>
</svg>
