<svg width="26" height="38" viewBox="0 0 26 38" fill="none" xmlns="http://www.w3.org/2000/svg">
<path d="M17.4729 16.2013L24.0961 1.00027M8.66806 16.5379L1.00024 1.00027M14.7902 15.4867L7.81351 1.00027M17.6292 1.00027L15.7816 5.50027M2.77685 26.2003C2.77685 29.0646 3.89991 31.8116 5.89898 33.837C7.89804 35.8624 10.6094 37.0003 13.4365 37.0003C16.2636 37.0003 18.9749 35.8624 20.9739 33.837C22.973 31.8116 24.0961 29.0646 24.0961 26.2003C24.0961 23.3359 22.973 20.5889 20.9739 18.5635C18.9749 16.5381 16.2636 15.4003 13.4365 15.4003C10.6094 15.4003 7.89804 16.5381 5.89898 18.5635C3.89991 20.5889 2.77685 23.3359 2.77685 26.2003Z" stroke="#0162D1" stroke-width="2" stroke-linecap="round" stroke-linejoin="round"/>
</svg>
