<svg width="1417" height="256" viewBox="0 0 1417 256" fill="none" xmlns="http://www.w3.org/2000/svg">
<g opacity="0.35">
<path d="M39.7073 111.999H0V155.685L39.7073 111.999Z" fill="url(#paint0_linear_220_873)" fill-opacity="0.15"/>
<path d="M93.9274 111.999L0 212.854V256H6.54965L150.991 111.999H93.9274Z" fill="url(#paint1_linear_220_873)" fill-opacity="0.15"/>
<path d="M451.736 166.584L370.874 256H466.731L558.109 166.584H451.736Z" fill="url(#paint2_linear_220_873)" fill-opacity="0.15"/>
<path d="M1418 0L1201.83 256H1235.12L1418 45.9366V0Z" fill="url(#paint3_linear_220_873)" fill-opacity="0.15"/>
<path d="M1418 81.2293L1266.54 256H1334.53L1418 154.616V81.2293Z" fill="url(#paint4_linear_220_873)" fill-opacity="0.15"/>
</g>
<defs>
<linearGradient id="paint0_linear_220_873" x1="709" y1="-250.971" x2="709" y2="256" gradientUnits="userSpaceOnUse">
<stop stop-color="#0162D1"/>
<stop offset="1" stop-color="#8C6CFF"/>
</linearGradient>
<linearGradient id="paint1_linear_220_873" x1="709" y1="-250.971" x2="709" y2="256" gradientUnits="userSpaceOnUse">
<stop stop-color="#0162D1"/>
<stop offset="1" stop-color="#8C6CFF"/>
</linearGradient>
<linearGradient id="paint2_linear_220_873" x1="709" y1="-250.971" x2="709" y2="256" gradientUnits="userSpaceOnUse">
<stop stop-color="#0162D1"/>
<stop offset="1" stop-color="#8C6CFF"/>
</linearGradient>
<linearGradient id="paint3_linear_220_873" x1="709" y1="-250.971" x2="709" y2="256" gradientUnits="userSpaceOnUse">
<stop stop-color="#0162D1"/>
<stop offset="1" stop-color="#8C6CFF"/>
</linearGradient>
<linearGradient id="paint4_linear_220_873" x1="709" y1="-250.971" x2="709" y2="256" gradientUnits="userSpaceOnUse">
<stop stop-color="#0162D1"/>
<stop offset="1" stop-color="#8C6CFF"/>
</linearGradient>
</defs>
</svg>
