<svg width="1412" height="372" viewBox="0 0 1412 372" fill="none" xmlns="http://www.w3.org/2000/svg">
<g opacity="0.35">
<path d="M86.0826 0L0 102.241V151.884L126.5 0H86.0826Z" fill="url(#paint0_linear_220_876)" fill-opacity="0.15"/>
<path d="M69 127.683L0 212.166V261.505L106.5 127.683H69Z" fill="url(#paint1_linear_220_876)" fill-opacity="0.15"/>
<path d="M900 0L812.927 63.236H918.921L1012.5 0H900Z" fill="url(#paint2_linear_220_876)" fill-opacity="0.15"/>
<path d="M1412 164.886L1324.02 257.672V312.455L1412 217.484V164.886Z" fill="url(#paint3_linear_220_876)" fill-opacity="0.15"/>
<path d="M1412 257.672L1346.92 329.644V372L1412 295.267V257.672Z" fill="url(#paint4_linear_220_876)" fill-opacity="0.15"/>
</g>
<defs>
<linearGradient id="paint0_linear_220_876" x1="0" y1="186" x2="1412" y2="186" gradientUnits="userSpaceOnUse">
<stop stop-color="#0162D1"/>
<stop offset="1" stop-color="#8C6CFF"/>
</linearGradient>
<linearGradient id="paint1_linear_220_876" x1="0" y1="186" x2="1412" y2="186" gradientUnits="userSpaceOnUse">
<stop stop-color="#0162D1"/>
<stop offset="1" stop-color="#8C6CFF"/>
</linearGradient>
<linearGradient id="paint2_linear_220_876" x1="0" y1="186" x2="1412" y2="186" gradientUnits="userSpaceOnUse">
<stop stop-color="#0162D1"/>
<stop offset="1" stop-color="#8C6CFF"/>
</linearGradient>
<linearGradient id="paint3_linear_220_876" x1="0" y1="186" x2="1412" y2="186" gradientUnits="userSpaceOnUse">
<stop stop-color="#0162D1"/>
<stop offset="1" stop-color="#8C6CFF"/>
</linearGradient>
<linearGradient id="paint4_linear_220_876" x1="0" y1="186" x2="1412" y2="186" gradientUnits="userSpaceOnUse">
<stop stop-color="#0162D1"/>
<stop offset="1" stop-color="#8C6CFF"/>
</linearGradient>
</defs>
</svg>
