<svg width="413" height="343" viewBox="0 0 413 343" fill="none" xmlns="http://www.w3.org/2000/svg">
<g filter="url(#filter0_d_220_912)">
<path d="M163.074 184.678L288.781 87.5755L263.941 155.322L341.473 134.245L5 341.247L215.013 184.678H163.074Z" fill="url(#paint0_linear_220_912)" fill-opacity="0.15"/>
<path d="M158.558 277.265L38.873 342H278.243C313.772 342 349.251 304.363 362.549 285.545C369.073 269.236 381.97 231.047 381.368 208.766C380.765 186.485 351.509 169.875 336.956 164.354L263.941 214.788H291.792C303.234 223.218 303.585 231.348 302.33 234.359L291.792 262.21C286.975 270.039 271.217 275.508 263.941 277.265H158.558Z" fill="url(#paint1_linear_220_912)" fill-opacity="0.15"/>
<path d="M117.91 61.2298C118.513 32.9269 103.608 8.28738 96.0811 -0.49453L342.225 -2C403.649 3.41969 410.473 44.4187 406.208 64.2407L296.309 127.47L309.858 86.8228C314.073 69.3593 301.076 62.4843 294.05 61.2298H117.91Z" fill="url(#paint2_linear_220_912)" fill-opacity="0.15"/>
<path d="M183.398 81.5536H113.394L43.3894 284.039L132.965 220.81L183.398 81.5536Z" fill="url(#paint3_linear_220_912)" fill-opacity="0.15"/>
</g>
<defs>
<filter id="filter0_d_220_912" x="0" y="-2" width="412.232" height="354" filterUnits="userSpaceOnUse" color-interpolation-filters="sRGB">
<feFlood flood-opacity="0" result="BackgroundImageFix"/>
<feColorMatrix in="SourceAlpha" type="matrix" values="0 0 0 0 0 0 0 0 0 0 0 0 0 0 0 0 0 0 127 0" result="hardAlpha"/>
<feOffset dy="5"/>
<feGaussianBlur stdDeviation="2.5"/>
<feComposite in2="hardAlpha" operator="out"/>
<feColorMatrix type="matrix" values="0 0 0 0 0 0 0 0 0 0 0 0 0 0 0 0 0 0 0.25 0"/>
<feBlend mode="normal" in2="BackgroundImageFix" result="effect1_dropShadow_220_912"/>
<feBlend mode="normal" in="SourceGraphic" in2="effect1_dropShadow_220_912" result="shape"/>
</filter>
<linearGradient id="paint0_linear_220_912" x1="173.236" y1="87.5755" x2="173.236" y2="341.247" gradientUnits="userSpaceOnUse">
<stop stop-color="#0162D1"/>
<stop offset="1" stop-color="#8C6CFF"/>
</linearGradient>
<linearGradient id="paint1_linear_220_912" x1="210.13" y1="164.354" x2="210.13" y2="342" gradientUnits="userSpaceOnUse">
<stop stop-color="#0162D1"/>
<stop offset="1" stop-color="#8C6CFF"/>
</linearGradient>
<linearGradient id="paint2_linear_220_912" x1="251.657" y1="-2" x2="251.657" y2="127.47" gradientUnits="userSpaceOnUse">
<stop stop-color="#0162D1"/>
<stop offset="1" stop-color="#8C6CFF"/>
</linearGradient>
<linearGradient id="paint3_linear_220_912" x1="113.394" y1="81.5536" x2="113.394" y2="284.039" gradientUnits="userSpaceOnUse">
<stop stop-color="#0162D1"/>
<stop offset="1" stop-color="#8C6CFF"/>
</linearGradient>
</defs>
</svg>
