<svg width="11" height="12" viewBox="0 0 11 12" fill="none" xmlns="http://www.w3.org/2000/svg">
<path d="M9.16667 12C8.65741 12 8.22454 11.825 7.86806 11.475C7.51157 11.125 7.33333 10.7 7.33333 10.2C7.33333 10.14 7.34861 10 7.37917 9.78L3.08611 7.32C2.92315 7.47 2.73472 7.5876 2.52083 7.6728C2.30694 7.758 2.07778 7.8004 1.83333 7.8C1.32407 7.8 0.891204 7.625 0.534722 7.275C0.178241 6.925 0 6.5 0 6C0 5.5 0.178241 5.075 0.534722 4.725C0.891204 4.375 1.32407 4.2 1.83333 4.2C2.07778 4.2 2.30694 4.2426 2.52083 4.3278C2.73472 4.413 2.92315 4.5304 3.08611 4.68L7.37917 2.22C7.3588 2.15 7.34617 2.0826 7.34128 2.0178C7.33639 1.953 7.33374 1.8804 7.33333 1.8C7.33333 1.3 7.51157 0.875 7.86806 0.525C8.22454 0.175 8.65741 0 9.16667 0C9.67593 0 10.1088 0.175 10.4653 0.525C10.8218 0.875 11 1.3 11 1.8C11 2.3 10.8218 2.725 10.4653 3.075C10.1088 3.425 9.67593 3.6 9.16667 3.6C8.92222 3.6 8.69306 3.5574 8.47917 3.4722C8.26528 3.387 8.07685 3.2696 7.91389 3.12L3.62083 5.58C3.6412 5.65 3.65404 5.7176 3.65933 5.7828C3.66463 5.848 3.66707 5.9204 3.66667 6C3.66626 6.0796 3.66381 6.1522 3.65933 6.2178C3.65485 6.2834 3.64202 6.3508 3.62083 6.42L7.91389 8.88C8.07685 8.73 8.26528 8.6126 8.47917 8.5278C8.69306 8.443 8.92222 8.4004 9.16667 8.4C9.67593 8.4 10.1088 8.575 10.4653 8.925C10.8218 9.275 11 9.7 11 10.2C11 10.7 10.8218 11.125 10.4653 11.475C10.1088 11.825 9.67593 12 9.16667 12ZM9.16667 10.8C9.33982 10.8 9.48505 10.7426 9.60239 10.6278C9.71972 10.513 9.77818 10.3704 9.77778 10.2C9.77737 10.0296 9.7187 9.8872 9.60178 9.7728C9.48485 9.6584 9.33982 9.6008 9.16667 9.6C8.99352 9.5992 8.84848 9.6568 8.73156 9.7728C8.61463 9.8888 8.55596 10.0312 8.55556 10.2C8.55515 10.3688 8.61381 10.5114 8.73156 10.6278C8.8493 10.7442 8.99433 10.8016 9.16667 10.8ZM1.83333 6.6C2.00648 6.6 2.15172 6.5424 2.26906 6.4272C2.38639 6.312 2.44485 6.1696 2.44444 6C2.44404 5.8304 2.38537 5.688 2.26844 5.5728C2.15152 5.4576 2.00648 5.4 1.83333 5.4C1.66019 5.4 1.51515 5.4576 1.39822 5.5728C1.2813 5.688 1.22263 5.8304 1.22222 6C1.22181 6.1696 1.28048 6.3122 1.39822 6.4278C1.51596 6.5434 1.661 6.6008 1.83333 6.6ZM9.60239 2.2272C9.71931 2.1128 9.77778 1.9704 9.77778 1.8C9.77778 1.6296 9.71911 1.4872 9.60178 1.3728C9.48444 1.2584 9.33941 1.2008 9.16667 1.2C8.99393 1.1992 8.84889 1.2568 8.73156 1.3728C8.61422 1.4888 8.55556 1.6312 8.55556 1.8C8.55556 1.9688 8.61422 2.1114 8.73156 2.2278C8.84889 2.3442 8.99393 2.4016 9.16667 2.4C9.33941 2.3984 9.48465 2.3408 9.60239 2.2272Z" fill="white"/>
</svg>
